<?xml version="1.0" encoding="UTF-8" standalone="no"?>
<!-- Created with Inkscape (http://www.inkscape.org/) -->

<svg
   xmlns:dc="http://purl.org/dc/elements/1.1/"
   xmlns:cc="http://creativecommons.org/ns#"
   xmlns:rdf="http://www.w3.org/1999/02/22-rdf-syntax-ns#"
   xmlns:svg="http://www.w3.org/2000/svg"
   xmlns="http://www.w3.org/2000/svg"
   xmlns:sodipodi="http://sodipodi.sourceforge.net/DTD/sodipodi-0.dtd"
   xmlns:inkscape="http://www.inkscape.org/namespaces/inkscape"
   id="svg2"
   version="1.1"
   inkscape:version="0.91 r13725"
   width="300"
   height="300"
   viewBox="0 0 300 300"
   sodipodi:docname="departures2.svg">
  <metadata
     id="metadata8">
    <rdf:RDF>
      <cc:Work
         rdf:about="">
        <dc:format>image/svg+xml</dc:format>
        <dc:type
           rdf:resource="http://purl.org/dc/dcmitype/StillImage" />
        <dc:title></dc:title>
      </cc:Work>
    </rdf:RDF>
  </metadata>
  <defs
     id="defs6" />
  <sodipodi:namedview
     pagecolor="#f2e5e5"
     bordercolor="#666666"
     borderopacity="1"
     objecttolerance="10"
     gridtolerance="10"
     guidetolerance="10"
     inkscape:pageopacity="0"
     inkscape:pageshadow="2"
     inkscape:window-width="1366"
     inkscape:window-height="705"
     id="namedview4"
     showgrid="false"
     showborder="false"
     inkscape:showpageshadow="false"
     fit-margin-top="0"
     fit-margin-left="0"
     fit-margin-right="0"
     fit-margin-bottom="0"
     inkscape:zoom="2.3090773"
     inkscape:cx="140.38521"
     inkscape:cy="150.2064"
     inkscape:window-x="-8"
     inkscape:window-y="-8"
     inkscape:window-maximized="1"
     inkscape:current-layer="g4135" />
  <g
     id="g2994"
     transform="translate(171.50541,-63.708224)">
    <g
       id="g4135">
      <circle
         r="142.04309"
         cy="213.70822"
         cx="-21.505409"
         id="path3770"
         style="fill:#ffffff;fill-opacity:1;fill-rule:evenodd;stroke:#ffffff;stroke-width:15.91381359;stroke-linecap:square;stroke-linejoin:miter;stroke-miterlimit:4;stroke-dasharray:none;stroke-dashoffset:0;stroke-opacity:1" />
      <path
         sodipodi:nodetypes="cccccccccscscssssssscsscsssssssssssss"
         inkscape:connector-curvature="0"
         id="path2996"
         d="m -117.40977,284.4075 0,-7.55515 100.088341,0 89.705937,0 -0.275671,7.31487 -0.275663,7.31488 -89.430265,0.24028 -99.812679,0.24026 z m 16.98939,-53.75668 c -0.77868,-0.52928 -2.56269,-0.96883 -3.96448,-0.97678 -3.80418,-0.0216 -4.81607,-2.6326 -2.48312,-6.40738 l 1.91196,-3.09361 -3.15934,-4.30723 c -1.73764,-2.36897 -5.60157,-7.07308 -8.58652,-10.45357 -7.14554,-8.09246 -7.11046,-9.95729 0.23597,-12.54135 3.06884,-1.07945 4.40973,-0.77701 18.877098,4.25776 8.565489,2.98086 16.847817,5.60188 18.405178,5.82449 1.935942,0.27672 5.369164,-0.76242 10.854333,-3.28529 4.412522,-2.0295 13.013401,-5.93161 19.113064,-8.67133 6.099665,-2.73972 11.102692,-5.46114 11.117831,-6.0476 0.0151,-0.58647 -9.389409,-10.22929 -20.899014,-21.4285 -12.578037,-12.23882 -20.767536,-20.89935 -20.527955,-21.70866 0.513383,-1.73421 13.791349,-8.38994 16.77778,-8.41004 1.253018,-0.008 17.241834,7.20514 35.530705,16.03018 18.2888713,8.82505 33.6903203,16.04554 34.2254488,16.04554 0.535128,0 8.1190882,-3.2391 16.8532492,-7.19801 20.09456,-9.10819 27.290143,-11.59088 35.633246,-12.2945 14.219299,-1.1992 27.911728,4.32236 27.911728,11.25559 0,4.9474 -6.143477,8.99536 -28.315651,18.65732 -4.412522,1.92284 -20.878432,9.2843 -36.59091,16.3588 -15.7124677,7.07449 -28.8855414,12.86271 -29.2734847,12.86271 -0.3879339,0 -2.367179,0.8907 -4.3983173,1.97932 -2.031128,1.08862 -11.581375,5.48787 -21.22276,9.7761 -23.052591,10.25319 -33.614882,13.04768 -50.092786,13.25318 -4.931642,0.0615 -10.665562,0.42084 -12.742043,0.79851 -2.213864,0.40266 -4.361002,0.28865 -5.19121,-0.27565 z"
         style="fill:#00bfff;fill-opacity:1" />
    </g>
  </g>
</svg>
